<?xml version="1.0" encoding="UTF-8" standalone="no"?>
<svg
   xmlns:dc="http://purl.org/dc/elements/1.1/"
   xmlns:cc="http://creativecommons.org/ns#"
   xmlns:rdf="http://www.w3.org/1999/02/22-rdf-syntax-ns#"
   xmlns:svg="http://www.w3.org/2000/svg"
   xmlns="http://www.w3.org/2000/svg"
   xmlns:sodipodi="http://sodipodi.sourceforge.net/DTD/sodipodi-0.dtd"
   xmlns:inkscape="http://www.inkscape.org/namespaces/inkscape"
   inkscape:version="1.0 (4035a4fb49, 2020-05-01)"
   sodipodi:docname="lethallink_dm_outline.svg"
   width="426.82904"
   height="488.19818"
   viewBox="0 0 112.93186 129.1691"
   version="1.1"
   id="svg919">
  <sodipodi:namedview
     inkscape:current-layer="svg919"
     inkscape:window-maximized="1"
     inkscape:window-y="47"
     inkscape:window-x="5130"
     inkscape:cy="426.93173"
     inkscape:cx="426.8381"
     inkscape:zoom="1.2160764"
     units="px"
     fit-margin-bottom="2"
     fit-margin-right="2"
     fit-margin-left="2"
     fit-margin-top="2"
     showgrid="false"
     id="namedview840"
     inkscape:window-height="1382"
     inkscape:window-width="2538"
     inkscape:pageshadow="2"
     inkscape:pageopacity="0"
     guidetolerance="10"
     gridtolerance="10"
     objecttolerance="10"
     borderopacity="1"
     bordercolor="#666666"
     pagecolor="#ffffff" />
  <metadata
     id="metadata925">
    <rdf:RDF>
      <cc:Work
         rdf:about="">
        <dc:format>image/svg+xml</dc:format>
        <dc:type
           rdf:resource="http://purl.org/dc/dcmitype/StillImage" />
        <dc:title>Exported SVG</dc:title>
      </cc:Work>
    </rdf:RDF>
  </metadata>
  <defs
     id="defs923" />
  <title
     id="title913">Exported SVG</title>
  <style
     id="style915"><![CDATA[
polygon {
shape-rendering:crispEdges;
stroke-width:0.090000;
}
.s1 {
stroke:#000000;
stroke-width:0.066456;
stroke-linecap:round;
stroke-linejoin:round;
fill:none;
}
.s2 {
stroke:#19b219;
stroke-width:0.066456;
stroke-linecap:round;
stroke-linejoin:round;
fill:none;
}
.s3 {
stroke:#7f4c00;
stroke-width:0.066456;
stroke-linecap:round;
stroke-linejoin:round;
fill:none;
}
.s4 {
stroke:#00cc00;
stroke-width:0.066456;
stroke-linecap:round;
stroke-linejoin:round;
fill:none;
}
.s5 {
stroke:#000000;
stroke-width:0.044304;
stroke-linecap:round;
stroke-linejoin:round;
fill:none;
}
.s6 {
stroke:#ff19ff;
stroke-width:0.044304;
stroke-linecap:round;
stroke-linejoin:round;
fill:none;
}
.s7 {
stroke:#ff0000;
stroke-width:0.066456;
stroke-linecap:round;
stroke-linejoin:round;
fill:none;
}
.s8 {
stroke:#ffff00;
stroke-width:0.066456;
stroke-linecap:round;
stroke-linejoin:round;
fill:none;
}
.s9 {
stroke:#001919;
stroke-width:0.044304;
stroke-linecap:round;
stroke-linejoin:round;
fill:none;
}
.sa {
stroke:#006666;
stroke-width:0.044304;
stroke-linecap:round;
stroke-linejoin:round;
fill:none;
}
.sb {
stroke:#00ffff;
stroke-width:0.132913;
stroke-linecap:round;
stroke-linejoin:round;
fill:none;
}
.sc {
stroke:#ff0000;
stroke-width:0.354434;
stroke-linecap:round;
stroke-linejoin:round;
fill:none;
}
.sd {
stroke:#191919;
stroke-width:0.044304;
stroke-linecap:round;
stroke-linejoin:round;
fill:none;
}
.se {
stroke:#000000;
stroke-width:0.044304;
stroke-linecap:round;
stroke-linejoin:round;
stroke-dasharray:0.665,0.665;
fill:none;
}
.sf {
stroke:#000000;
stroke-width:0.132913;
stroke-linecap:round;
stroke-linejoin:round;
fill:none;
}
]]></style>
  <path
     d="M 110.79933,127.03696 V 36.480923 h -1.71744 a 1.4067413,1.4067413 0 0 1 -1.40674,-1.406741 v -3.433323 a 1.4067413,1.4067413 0 0 1 1.40674,-1.40518 h 1.71744 V 2.13208 H 50.532723 V 7.596669 A 0.78065553,0.78065553 0 0 1 49.752067,8.377324 0.78065553,0.78065553 0 0 1 48.971412,7.596669 V 2.13208 H 2.13208 v 28.103599 h 1.7174422 a 1.40518,1.40518 0 0 1 1.4051799,1.40518 v 3.434884 a 1.40518,1.40518 0 0 1 -1.4051799,1.40518 H 2.13208 v 90.556037 h 108.66725 m -9.68013,-7.02589 a 2.6542288,2.6542288 0 0 1 2.65423,-2.65423 2.6542288,2.6542288 0 0 1 2.65423,2.65423 2.6542288,2.6542288 0 0 1 -2.65423,2.65422 2.6542288,2.6542288 0 0 1 -2.65423,-2.65422 m 5.15233,-108.511124 a 1.40518,1.40518 0 0 1 1.40518,-1.40518 1.40518,1.40518 0 0 1 1.40518,1.40518 1.40518,1.40518 0 0 1 -1.40518,1.40518 1.40518,1.40518 0 0 1 -1.40518,-1.40518 m -102.4220078,0 a 1.40518,1.40518 0 0 1 1.4051799,-1.40518 1.40518,1.40518 0 0 1 1.40518,1.40518 1.40518,1.40518 0 0 1 -1.40518,1.40518 1.40518,1.40518 0 0 1 -1.4051799,-1.40518 M 6.503751,120.01107 a 2.6542288,2.6542288 0 0 1 2.654229,-2.65423 2.6542288,2.6542288 0 0 1 2.654229,2.65423 2.6542288,2.6542288 0 0 1 -2.654229,2.65422 2.6542288,2.6542288 0 0 1 -2.654229,-2.65422"
     class="s0"
     id="path917"
     style="stroke-width:1.56131" />
  <path
     id="path917-3"
     style="fill:#ffffff;fill-opacity:1;stroke:#000000;stroke-width:0.264583;stroke-miterlimit:4;stroke-dasharray:none;stroke-opacity:1"
     d="M 2.1322916,2.1322916 V 30.235484 h 1.7172078 c 0.7761848,5.3e-5 1.4053137,0.629415 1.4050822,1.405599 v 3.434416 c 2.315e-4,0.776184 -0.6288974,1.405546 -1.4050822,1.405599 H 2.1322916 V 127.03681 H 110.79956 V 36.481098 h -1.71772 c -0.77704,-5.8e-5 -1.40686,-0.63011 -1.40664,-1.407149 v -3.432866 c 5.3e-4,-0.776433 0.6302,-1.405541 1.40664,-1.405599 h 1.71772 V 2.1322916 H 50.532955 v 5.4642657 c 9.8e-5,0.4312809 -0.349549,0.7809275 -0.780831,0.780831 -0.431281,9.81e-5 -0.780931,-0.349549 -0.780833,-0.780831 V 2.1322916 Z M 3.8494904,11.500195 C 3.8492578,10.725018 4.476813,10.096078 5.2519887,10.094596 h 0.00259 c 0.7761848,5.4e-5 1.4053137,0.629414 1.4050822,1.405599 -5.42e-5,0.775983 -0.6290992,1.405028 -1.4050822,1.405082 -0.775983,-5.4e-5 -1.405028,-0.629099 -1.4050822,-1.405082 z m 102.4221196,0 c -2.4e-4,-0.775178 0.62732,-1.404117 1.4025,-1.405599 h 0.003 c 0.77619,5.4e-5 1.40532,0.629414 1.40509,1.405599 -6e-5,0.775983 -0.6291,1.405029 -1.40509,1.405082 -0.77598,-5.3e-5 -1.40503,-0.629099 -1.40508,-1.405082 z M 6.5036014,120.01088 c 5.64e-5,-1.46136 1.1813837,-2.64777 2.6427327,-2.6541 0.00396,-1e-5 0.00792,-1e-5 0.011885,0 1.4657909,7e-5 2.6540309,1.18831 2.6541019,2.6541 2.14e-4,1.466 -1.18811,2.65455 -2.6541019,2.65462 -1.4661941,2.2e-4 -2.6548331,-1.18842 -2.6546177,-2.65462 z m 94.6154186,0 c 5e-5,-1.46136 1.18138,-2.64777 2.64273,-2.6541 0.004,-1e-5 0.008,-1e-5 0.0119,0 1.46579,7e-5 2.65403,1.18831 2.6541,2.6541 2.2e-4,1.466 -1.18811,2.65455 -2.6541,2.65462 -1.46619,2.2e-4 -2.65483,-1.18842 -2.65462,-2.65462 z" />
</svg>
